# xmcd CD database file
#
# Track frame offsets:
#	150
#	15556
#	23062
#	38349
#	50693
#	65401
#	79213
#	92493
#	107156
#	122372
#	136215
#	149770
#	163608
#	182666
#	193326
#	208313
#	221884
#	235392
#	247740
#	262569
#
# Disc length: 3700 seconds
#
# Revision: 1
# Processed by: cddbd v1.5.1PL2 Copyright (c) Steve Scherf et al.
# Submitted via: CDex 1.51
#
DISCID=160e7214
DTITLE=Louis Amstrong - Mack The Knife
DYEAR=1900
DGENRE=Blues
TTITLE0=Mack The Knife
TTITLE1=Blueberry Hill
TTITLE2=When It's Sleepy Time Down Town
TTITLE3=Tiger Rag
TTITLE4=Confessin'
TTITLE5=Down In Honky Tonk Town
TTITLE6=Baby Don't You Cry
TTITLE7=I Cover The Waterfront
TTITLE8=Shanty Boat On The Mississippi
TTITLE9=Poor Old Joe
TTITLE10=Hey Lawdy Mama
TTITLE11=I Wonder
TTITLE12=Snafu
TTITLE13=Yes Suh!
TTITLE14=Wolverine Blues
TTITLE15=I Used To Love You (But's It's All Over Now)
TTITLE16=Linger In My Arms A Little Longer Baby
TTITLE17=Weather Bird
TTITLE18=Dallas Blues
TTITLE19=Dear Old Southhland
EXTD=
EXTT0=
EXTT1=
EXTT2=
EXTT3=
EXTT4=
EXTT5=
EXTT6=
EXTT7=
EXTT8=
EXTT9=
EXTT10=
EXTT11=
EXTT12=
EXTT13=
EXTT14=
EXTT15=
EXTT16=
EXTT17=
EXTT18=
EXTT19=
PLAYORDER=
